<svg xmlns="http://www.w3.org/2000/svg" width="1409.887" height="381.313" viewBox="0 0 1057.415 285.985" version="1.1" id="svg2"><g id="#ffd600ff" style="fill:#fff"><path d="M0 0h281.53c-.07 25.16 0 50.32-.04 75.48-22.15.07-44.34 2.98-65.65 9.06-16.81 4.8-33.11 11.8-47.56 21.7-11.23 7.91-21.73 17.66-27.81 30.17-6.13 11.39-15.29 20.9-25.86 28.27-23.55 16.56-51.86 25.07-80.12 29.08-11.42 1.74-22.98 1.92-34.49 2.57V0Z" id="path5" style="opacity:1;fill:#fff"/></g><g id="#ff8c17ff" style="fill:#fff"><path d="M202.32 103.24c25.32-9.15 52.34-13.42 79.24-13.19-.14 64.48-.02 128.96-.06 193.44-93.84.02-187.67 0-281.5.01v-73.26c4.32-.01 8.64.09 12.96-.01 29.53-1.79 59.23-7.98 85.7-21.56 17.53-9.05 34.02-21.85 43.28-39.65 4.8-9.39 12.08-17.26 20.21-23.87 11.98-9.59 25.83-16.59 40.17-21.91z" id="path9" style="opacity:1;fill:#fff"/></g><g id="#000000ff" transform="matrix(.87871 0 0 .87871 112.603 -98.892)"><path d="M372.72 130.7c8.03-8.38 19.86-12.35 31.31-12.14 10.45-.18 21.23 3.19 28.85 10.53 6.32 5.83 9.83 14.16 10.8 22.6-6.61.04-13.21.01-19.82.02-1.03-5.24-4.14-10.04-8.8-12.75-8.47-5.29-20.59-3.79-27.45 3.51-4.65 5.03-6.8 11.83-7.64 18.52-.84 9.31.15 19.46 5.85 27.21 6 8.32 18.16 11.13 27.37 6.8 6.92-3.34 10.51-11.06 11.3-18.39 6.65-.01 13.3-.05 19.96.02-.93 10.62-5.22 21.31-13.45 28.36-8.39 7.42-20.11 10.07-31.07 9.06-11.73-.57-23.29-6.13-30.52-15.48-7.53-9.4-10.53-21.72-10.3-33.59.49-12.47 4.43-25.43 13.61-34.28z" id="path12" style="opacity:1;fill:#fff"/><path d="M466.31 131.33c14.32-14.98 39.91-17.12 56.75-5.21 8.05 5.7 13.14 15.08 14.06 24.86-6.58.03-13.15.05-19.73-.02-1.1-5.4-4.47-10.4-9.43-12.93-6.39-3.21-14.25-2.77-20.6.33-6.93 3.6-10.93 11.1-12.34 18.54-2.3 10.88-1.06 23.18 5.8 32.24 7.23 8.9 21.3 10.19 30.79 4.29 5.22-3.38 7.45-9.63 8.3-15.52-6.78-.06-13.56.1-20.33-.09.03-5.16-.01-10.31.03-15.47 12.94-.06 25.88-.19 38.82.07-.06 16.53-.01 33.05-.03 49.58h-13.17c-.77-3.2-1.38-6.45-1.63-9.73-4.98 5.36-11.1 9.97-18.44 11.39-13.1 2.07-27.43-1.32-37.2-10.57-9.89-9.11-14.56-22.84-14.4-36.08-.24-12.88 3.82-26.17 12.75-35.68z" id="path14" style="opacity:1;fill:#fff"/><path d="M563.21 131.14c8.11-8.58 20.08-12.81 31.76-12.58 11.36-.22 23.18 3.86 30.82 12.52 5.12 5.68 7.98 13.09 8.84 20.63-6.59.01-13.18-.03-19.76.02-1.01-4.49-3.28-8.8-7.05-11.56-8.65-6.75-22.4-5.5-29.64 2.76-4.25 4.65-6.15 10.9-7.1 17-1.09 9.64-.16 20.16 5.67 28.25 6.41 8.92 19.97 11.57 29.27 5.76 5.85-3.75 8.59-10.68 9.47-17.33 6.63-.03 13.26-.03 19.9 0-.89 10.84-5.37 21.82-13.95 28.8-8.35 7.03-19.73 9.65-30.45 8.64-12-.56-23.81-6.37-31.05-16.05-7.2-9.34-10.11-21.4-9.84-33.05.43-12.26 4.33-24.92 13.11-33.81z" id="path16" style="opacity:1;fill:#fff"/><path d="M325.62 120.61c6.79-.03 13.59-.01 20.38-.01V212h-20.4c.01-30.46-.04-60.93.02-91.39z" id="path18" style="opacity:1;fill:#fff"/><path d="M322.3 230.15c1.86-.04 3.72-.05 5.58-.05.06 17.76.02 35.53.02 53.29-1.88 0-3.75-.02-5.62-.06.03-17.73-.01-35.46.02-53.18z" id="path20" style="opacity:1;fill:#fff"/><path d="M434.31 230.13c1.79-.02 3.58-.02 5.38.01.01 2.6.02 5.22.05 7.83-1.83.01-3.65.02-5.47.02.02-2.62.02-5.24.04-7.86z" id="path22" style="opacity:1;fill:#fff"/><path d="M415.34 233.32c1.67-.02 3.35-.02 5.03 0 .05 3.89.03 7.78.04 11.68H428v3.99c-2.55-.01-5.11 0-7.65.1.25 9.16-.21 18.34.22 27.49.45 3.64 4.87 2.54 7.41 2.48v4.67c-3.22-.14-6.65.47-9.67-.93-2.39-1.32-3.14-4.21-3.03-6.75.01-9.01.01-18.03.01-27.05h-6.7c0-1.34 0-2.67.01-4 2.22 0 4.46-.01 6.69 0 0-3.9-.03-7.79.05-11.68z" id="path24" style="opacity:1;fill:#fff"/><path d="M450.6 233.36c1.74-.05 3.49-.07 5.24-.08.1 3.9.06 7.81.06 11.71 2.61 0 5.22.01 7.84.05-.02 1.31-.03 2.63-.03 3.94-2.6.02-5.21.02-7.8.02.08 9.34-.17 18.69.11 28.02 1.03 3.3 5.11 1.96 7.68 2.11l-.03 4.53c-3.45-.07-7.15.66-10.32-1.06-2.49-1.64-2.6-4.93-2.75-7.6 0-8.65-.05-17.29.04-25.94-2.19-.05-4.38-.07-6.56-.08 0-1.33.01-2.65.02-3.98h6.49c.01-3.88 0-7.76.01-11.64z" id="path26" style="opacity:1;fill:#fff"/><path d="m512.14 233.32 4.83-.06c.05 3.91.03 7.82.03 11.74 2.63-.01 5.27 0 7.91.01-.01 1.32-.01 2.65.01 3.98-2.65.01-5.29.01-7.92.01-.01 8 .01 16-.02 24-.05 1.92.1 3.99 1.27 5.61 2.05 1.05 4.42.48 6.63.49 0 1.53-.01 3.06-.02 4.59-3.22-.12-6.68.57-9.69-.88-2.14-.98-3.14-3.48-3.07-5.72-.03-9.36.01-18.72 0-28.08l-6.82-.03c-.01-1.32-.02-2.63-.02-3.93 2.27-.05 4.55-.06 6.84-.06-.01-3.89-.03-7.78.04-11.67z" id="path28" style="opacity:1;fill:#fff"/><path d="M342.49 250.68c3.86-7.47 14.05-8.79 20.97-5.11 3.93 2.24 5.22 7.06 5.41 11.29.09 8.84.01 17.67.03 26.5-1.76.03-3.52.04-5.28.05-.08-8.47.02-16.94-.04-25.4-.08-3.02-.79-6.36-3.36-8.25-4-2.86-9.79-2.07-13.44 1.03-2.78 2.61-4.18 6.47-4.07 10.26-.01 7.41-.01 14.82.02 22.23-1.76.08-3.53.14-5.28.21-.37-12.81-.03-25.64-.18-38.46 1.82-.02 3.65-.04 5.48-.04-.03 1.89-.08 3.79-.26 5.69z" id="path30" style="opacity:1;fill:#fff"/><path d="M380.98 246.09c5.29-2.97 12.12-3.35 17.65-.77 4.08 2.04 6.64 6.58 6.3 11.13-1.54-.02-3.07-.02-4.61 0-.97-2.95-2.02-6.41-5.34-7.44-4.67-2.2-12.81-1-13.57 5.09-.01 3.57 3.63 5.38 6.64 6.09 5.15 1.7 11.34 1.34 15.41 5.44 4.9 4.51 3.34 13.54-2.6 16.42-5.88 2.98-13.38 3.29-19.29.27-4.4-2.25-6.52-7.29-6.66-12.02 1.61-.02 3.23-.03 4.85-.05.74 3.64 2.43 7.62 6.3 8.82 4.96 1.94 12.12 1.02 14.82-4.07 1.24-3.29-1.04-6.64-4.23-7.52-5.63-2.19-12.2-2.01-17.2-5.71-5.05-3.89-3.93-12.69 1.53-15.68z" id="path32" style="opacity:1;fill:#fff"/><path d="M434.28 245c1.82 0 3.64.02 5.47.05-.17 12.79.13 25.58-.15 38.37-1.74-.01-3.48-.01-5.21-.01-.23-12.8-.02-25.61-.11-38.41z" id="path34" style="opacity:1;fill:#fff"/><path d="M469.6 245c1.76 0 3.53 0 5.31.01-.01 8.32 0 16.65-.02 24.98-.05 3.34 1.09 7.34 4.37 8.86 3.87 1.98 8.86 1.52 12.13-1.41 3.32-3.18 4.38-7.97 4.6-12.4.04-6.68-.01-13.36.01-20.04 1.66-.01 3.33 0 5 0v38.41l-4.7-.03c-.02-2.11 0-4.22.14-6.32-4.2 7.27-14.41 9.45-21.49 5.31-4.13-2.67-5.22-7.84-5.32-12.42-.09-8.31-.01-16.63-.03-24.95z" id="path36" style="opacity:1;fill:#fff"/><path d="M323.96 312.03c7.94-13.23 29.33-15.03 39.31-3.27 2.75 3.1 3.79 7.2 4.74 11.13-3.88.17-7.77.1-11.65.11-.82-3.75-3.53-6.98-7.21-8.17-5.82-2.48-13.13.75-15.6 6.5-2.93 6.65-3.02 14.92.64 21.3 3.77 6.8 14.69 8.26 19.61 2 1.93-2.07 1.95-5.12 3.23-7.47 3.69-.19 7.39-.02 11.08-.06-.23 7.9-4.69 15.78-11.94 19.23-9.36 4.4-21.54 2.79-28.98-4.56-9.25-9.56-9.99-25.6-3.23-36.74z" id="path38" style="opacity:1;fill:#fff"/><path d="M787.59 302.51c7.81-2.64 17.14-1.99 23.84 3.13 4.48 3.32 7.12 8.68 7.67 14.17-3.82.14-7.64.15-11.45 0-.76-3.55-3.07-6.96-6.68-8.03-5.81-2.36-13.02.72-15.63 6.36-3.16 6.84-3.1 15.3.79 21.84 3.98 6.4 13.9 7.51 19.47 2.62 2.18-1.97 2.79-4.99 3.58-7.69-3.88-.02-7.75.05-11.61-.1.03-2.91.03-5.82-.03-8.72 7.45-.19 14.91-.05 22.37-.09-.01 9.45 0 18.91-.01 28.36-2.59.04-5.18.05-7.76.07-.4-1.75-.82-3.52-1.17-5.27-8.28 10.01-24.76 7.78-32.88-1.27-6.69-7.4-8.12-18.34-5.83-27.78 1.85-7.88 7.53-15 15.33-17.6z" id="path40" style="opacity:1;fill:#fff"/><path d="M589.94 301.66c4.02-.11 8.04-.05 12.07-.08 2.41 3.6 4.95 7.1 7.24 10.78-2.68-.12-5.48.45-8.07-.26-3.85-3.37-7.53-6.93-11.24-10.44z" id="path42" style="opacity:1;fill:#fff"/><path d="M633.3 305.29c4.05-3.72 9.97-3.3 15.05-2.81.06 2.73.06 5.46.03 8.2-2.08.01-4.22-.43-6.22.32-1.97 1.18-1.01 3.73-1.32 5.6 2.32-.01 4.65-.01 6.99-.02.07 2.43.08 4.86.06 7.3-2.33.02-4.66.03-6.98.03-.01 10.15 0 20.3-.01 30.45-3.64.06-7.27.05-10.9.04v-30.5c-2.01 0-4.01 0-6 .01-.01-2.45-.01-4.89 0-7.33 1.96.01 3.93.02 5.9.06-.02-3.97.13-8.54 3.4-11.35z" id="path44" style="opacity:1;fill:#fff"/><path d="M734.01 302.09c3.55 0 7.12-.02 10.68.05.01 2.94.01 5.88.05 8.82-3.59.05-7.17.04-10.74.04-.01-2.97-.01-5.95.01-8.91z" id="path46" style="opacity:1;fill:#fff"/><path d="M913.31 302.14c3.55-.07 7.12-.05 10.68-.05.02 17.44 0 34.88.01 52.32-3.53-.01-7.05-.02-10.56.03-.33-17.42-.08-34.86-.13-52.3z" id="path48" style="opacity:1;fill:#fff"/><path d="M936.97 301.66c4-.12 8.02-.04 12.04-.08 2.43 3.58 4.86 7.16 7.22 10.79-2.69.05-5.36.06-8.03-.06-3.66-3.65-7.61-6.98-11.23-10.65z" id="path50" style="opacity:1;fill:#fff"/><path d="M653.62 302.11c3.59-.03 7.18-.04 10.77.02.01 2.95.01 5.91.02 8.87H653.6c-.02-2.96-.02-5.93.02-8.89z" id="path52" style="opacity:1;fill:#fff"/><path d="M1020.63 302.11c3.57-.03 7.15-.03 10.74 0 .03 2.96.03 5.92.04 8.89h-10.82c-.01-2.96-.01-5.93.04-8.89z" id="path54" style="opacity:1;fill:#fff"/><path d="M447.04 305.26c3.54.04 7.08.01 10.63.07.06 3.74.05 7.47 0 11.21 2.44.05 4.89.06 7.34.06-.01 2.43-.01 4.87-.02 7.31-2.43-.01-4.86-.01-7.28-.01 0 6.04-.01 12.07-.01 18.1.03 1.37-.08 3.19 1.37 3.93 1.95.46 3.95.2 5.93.11 0 2.88 0 5.77-.01 8.66-4.55.15-9.37.85-13.67-1.03-2.64-1.04-4.45-3.79-4.31-6.63-.05-7.72.01-15.44-.01-23.16-1.8.03-3.63.04-5.42.13-1.08-2.44-.85-5.13-1.02-7.72 2.1.31 4.25.34 6.38.38.09-3.8.03-7.61.1-11.41z" id="path56" style="opacity:1;fill:#fff"/><path d="M568.26 322.13c3.28-4.44 8.78-7.84 14.46-6.29-.02 3.33-.02 6.66-.02 9.99-3.22.05-6.96-.87-9.69 1.33-2.8 1.95-4.17 5.52-4.11 8.85-.06 6.14.13 12.28-.09 18.42-3.59-.03-7.17.01-10.74-.11.06-12.56-.01-25.12.03-37.68 3.44-.06 6.88-.06 10.33-.02-.04 1.83-.09 3.67-.17 5.51z" id="path58" style="opacity:1;fill:#fff"/><path d="M381.93 317.1c5.93-2.16 12.49-2.05 18.58-.63 3.62 1.02 7.23 3.66 7.73 7.64.83 10.07-1.03 20.37 1.37 30.29-3.58 0-7.16 0-10.74.02-.21-.72-.62-2.14-.83-2.86-5.91 4.37-14.64 5.44-21.04 1.55-4.46-2.89-4.63-8.89-3.6-13.55 1.8-5.11 7.61-6.66 12.43-7.25 3.45-.49 7.16-.47 10.33-2.08 2.3-1.28 1.27-4.07.63-6-4.33-2.74-11.95-1.73-12.31 4.44-3.52.06-7.04.04-10.56.05-.26-5.15 3.24-9.9 8.01-11.62m3.71 22.55c-2.37 1.29-2.59 4.85-1.11 6.85 2.78 2.39 7.07 1.97 10.11.29 3.24-2.29 2.97-6.62 3.03-10.13-3.88 1.52-8.35.94-12.03 2.99z" id="path60" style="opacity:1;fill:#fff"/><path d="M426.12 322.89c2.47-5.23 8.32-7.86 13.92-7.54.6 3.49.26 7.04.55 10.56-3.18-.13-6.8-.86-9.58 1.14-3.04 1.89-4.13 5.68-4.24 9.07-.19 6.08.04 12.17-.11 18.26-3.56.04-7.12.04-10.68-.01.04-12.59.01-25.18.02-37.77 3.32-.01 6.64-.01 9.97-.01.03 2.09.07 4.19.15 6.3z" id="path62" style="opacity:1;fill:#fff"/><path d="M480.49 316.63c6.58-2.1 14.36-1.54 20.01 2.68 7.92 6.18 9.09 18.3 4.66 26.88-6.61 12.49-27.79 12.48-34.35-.06-5.41-10.13-2.14-25.68 9.68-29.5m3.89 7.86c-4.3 2.07-5.27 7.3-5.36 11.61.38 3.29.96 6.93 3.61 9.21 2.14 2.06 5.37 2.14 8.11 1.55 4.89-1.67 6.19-7.42 6.24-11.99-.42-3.06-.81-6.48-3.13-8.74-2.34-2.59-6.4-2.94-9.47-1.64z" id="path64" style="opacity:1;fill:#fff"/><path d="M516.1 321.98c5.03-7.84 18.29-9.15 23.91-1.28 0-1.03-.01-3.08-.01-4.11 3.46 0 6.93-.01 10.4.03.02 10.79 0 21.58.01 32.37-.14 5.01-.31 10.6-4.06 14.41-5.27 5.18-13.53 6.03-20.49 4.78-6.02-.89-12.12-5.5-12-12.07 3.51-.02 7.03-.06 10.55.06 1.72 6.19 11.28 6.82 14.35 1.48 1.7-2.8 1.19-6.16 1.25-9.27-6.28 7.64-20.3 6.4-24.83-2.52-3.69-7.36-3.56-16.87.92-23.88m12.2 2.42c-3.58 1.71-4.88 5.93-4.9 9.63.11 3.52.79 7.55 3.83 9.78 3.49 2.6 8.94 1.22 11.06-2.49 2.54-4.34 2.24-10.04-.26-14.32-1.97-3.21-6.43-3.92-9.73-2.6z" id="path66" style="opacity:1;fill:#fff"/><path d="M590.11 319.19c5.68-4.15 13.27-4.27 19.95-3.18 4.06.6 8.57 2.72 9.75 7.01 1.78 10.38-.83 21.12 1.59 31.42-3.58-.06-7.17-.04-10.74-.02-.2-.78-.6-2.32-.79-3.09-4.24 3.89-10.39 4.62-15.86 3.82-4.29-.56-8.44-3.75-9.11-8.18-1-4.31.04-9.57 4.05-12.01 6.12-3.74 13.76-2.01 20.12-5.09.02-1.81.81-4.03-.7-5.47-2.15-2.12-5.68-1.69-8.36-1.1-2.48.61-3.09 3.28-3.64 5.41-3.65-.02-7.3 0-10.94.05.66-3.51 1.59-7.37 4.68-9.57m6.43 21.3c-1.83 1.67-1.03 4.28-.34 6.28 3.58 1.84 8.64 2.13 11.45-1.19 2.2-2.41 1.53-5.86 1.69-8.83-4.15 1.62-9.3.6-12.8 3.74z" id="path68" style="opacity:1;fill:#fff"/><path d="M675.22 322.06c5.98-7.57 17.59-8.34 25.69-3.93 4.31 2.34 6.8 7.02 7.25 11.81-3.56.09-7.12.09-10.68 0-.66-3.11-3-6.22-6.48-6.1-4.21-.77-7.77 2.75-8.69 6.6-1.09 4.68-1.11 10.18 1.97 14.16 2.91 3.72 9.43 3.36 12.01-.58.79-1.36 1.13-2.92 1.65-4.39 3.4-.05 6.81-.05 10.22-.02-.23 6.79-5.11 13.18-11.69 15.01-5.66 1.43-12.03 1.17-17.1-1.95-4.31-2.48-7.12-7.01-8.14-11.8-.75-6.43-.47-13.67 3.99-18.81z" id="path70" style="opacity:1;fill:#fff"/><path d="M828.8 323.86c5.92-9.5 20.87-11.36 28.85-3.5 4.56 4.62 6.02 11.34 5.79 17.64-9.05.01-18.1-.01-27.15.01.48 2.23.53 4.78 2.26 6.5 4.03 4.49 12.27 3.14 14.97-2.19 3.1-.05 6.22-.06 9.33.06-1.61 5.54-5.6 10.67-11.34 12.24-6.58 1.64-14.28 1.06-19.58-3.55-7.46-6.68-8.28-18.93-3.13-27.21m7.53 7.23c5.4 0 10.8.02 16.2-.01-.63-3.71-3.37-7.64-7.56-7.27-4.41-.59-8.14 3.06-8.64 7.28z" id="path72" style="opacity:1;fill:#fff"/><path d="M881.19 316.26c6.45-1.68 13.92-.85 19.19 3.47 5.1 4.06 7.03 10.96 6.58 17.26-.01 7.41-4.62 14.78-11.76 17.22-8.01 2.64-18.31 1.36-23.55-5.88-3.98-4.87-4.04-11.48-3.49-17.43.97-6.92 6.19-12.98 13.03-14.64m3.1 7.98c-3.65 1.3-5.34 5.28-5.53 8.89-.21 3.52-.23 7.31 1.72 10.41 2.94 5.18 12 4.81 14.28-.82 2.06-4.7 2.07-10.61-.39-15.16-1.82-3.59-6.53-4.49-10.08-3.32z" id="path74" style="opacity:1;fill:#fff"/><path d="M944.09 316.24c5.8-1.45 12.31-.98 17.48 2.2 11.78 7.65 11.26 28.36-1.41 34.88-7.32 3.38-16.79 2.95-23.14-2.29-10.76-9.46-7.76-31.21 7.07-34.79m3.02 8.02c-5.22 2.13-5.97 8.7-5.45 13.62.08 4.52 3.4 9.62 8.39 9.26 4.26.49 7.81-3.11 8.59-7.07.93-4.35.79-9.35-1.77-13.14-2.12-3.09-6.38-3.76-9.76-2.67z" id="path76" style="opacity:1;fill:#fff"/><path d="M975.21 330.08c.96-6.34 5.31-12.68 11.86-14.09 5.52-1.59 12.04.01 15.4 4.9-.1-1.42-.18-2.84-.22-4.25 3.44-.06 6.88-.04 10.33-.08.3 11.15.03 22.31.14 33.46.06 4.78-.8 9.96-4.22 13.54-3.73 3.88-9.34 4.83-14.47 5.17-5.04.06-10.43-1.06-14.29-4.49-2.33-2.06-3.34-5.11-3.81-8.09 3.54-.09 7.09-.07 10.64-.04 1.76 6.03 11.11 7.02 14.28 1.78 1.9-2.86 1.25-6.46 1.59-9.69-5.98 7.56-19.33 6.76-24.39-1.41-3.17-4.93-3.46-11.04-2.84-16.71m15.99-5.93c-6.02 2.58-6.47 10.67-4.39 16.03 1.45 4.77 7.98 6.52 11.76 3.37 4.6-3.86 4.6-11.13 1.99-16.12-1.72-3.34-5.98-4.29-9.36-3.28z" id="path78" style="opacity:1;fill:#fff"/><path d="M1042.18 322.12c5.78-7.35 16.95-8.36 24.98-4.43 4.69 2.29 7.65 7.14 8.03 12.29-3.57.03-7.14.03-10.7-.01-.45-6.02-8.69-8.28-12.6-4.11-3.93 4.59-4.11 11.63-1.72 16.97 1.81 4.36 7.79 5.67 11.5 2.95 2-1.46 2.56-3.98 3.38-6.17 3.38-.02 6.77-.02 10.17-.01-.38 5.23-3.07 10.45-7.64 13.18-4.63 2.85-10.43 3.14-15.64 2.14-6.77-1.39-12.23-7.05-13.61-13.78-.98-6.49-.46-13.74 3.85-19.02z" id="path80" style="opacity:1;fill:#fff"/><path d="M653.61 316.62c3.59-.04 7.18-.04 10.78 0 .03 12.58.01 25.17.01 37.75-3.6.05-7.2.05-10.79.01-.03-12.59-.03-25.18 0-37.76z" id="path82" style="opacity:1;fill:#fff"/><path d="M734 316.6c3.57-.01 7.15-.06 10.73.1-.03 12.53-.04 25.06.01 37.59-3.58.17-7.17.12-10.74.11v-37.8z" id="path84" style="opacity:1;fill:#fff"/><path d="M1020.62 316.61c3.58-.03 7.17-.03 10.77.01.03 12.58.02 25.17 0 37.76-3.6.04-7.19.04-10.77.01-.04-12.59-.04-25.19 0-37.78z" id="path86" style="opacity:1;fill:#fff"/><path d="M415.97 383.95c6.5-7.76 18.73-9.1 27.36-4.31 4.83 2.59 7.97 7.65 8.63 13.05l-4.97.03c-1.01-2.69-2-5.52-4.19-7.5-6.77-6.61-19.35-4.78-24.16 3.29-5.06 8.12-4.96 19.32.51 27.21 3.97 5.74 11.95 7.91 18.43 5.66 5.84-2.15 9.4-8.22 9.87-14.23 1.65-.04 3.31-.07 4.99-.09-.35 6.7-3.67 13.33-9.45 16.93-6.66 3.74-15.22 3.52-21.84-.17-5.76-3.29-9.4-9.43-10.6-15.83-1.42-8.26-.22-17.52 5.42-24.04z" id="path88" style="opacity:1;fill:#fff"/><path d="M346.59 378c1.6-.01 3.21 0 4.81 0-.02 15.89.05 31.79-.03 47.68-1.46.01-2.92.02-4.37.04v-5.45c-4.99 7.3-16.37 8.64-22.69 2.35-6.24-7.02-6.61-18.25-1.94-26.19 5.15-8.52 19.37-8.77 24.42-.01-.41-6.13-.11-12.28-.2-18.42m-15.12 16.59c-2.56.94-4.62 2.96-5.73 5.43-2.73 5.93-2.51 13.46 1.44 18.79 4.11 5.69 13.86 4.69 17.17-1.34 2.99-5.48 3.04-12.57.16-18.09-2.4-4.48-8.33-6.65-13.04-4.79z" id="path90" style="opacity:1;fill:#fff"/><path d="M546.27 378.03c1.57-.02 3.14-.04 4.73-.04-.04 15.92.07 31.85-.05 47.78-1.55-.05-3.09-.09-4.62-.13-.11-15.87.02-31.74-.06-47.61z" id="path92" style="opacity:1;fill:#fff"/><path d="M495 380.59c1.45 0 2.91.01 4.38.02.04 3.43.04 6.87-.03 10.3 2.37.07 4.75.1 7.13.2-.04 1.23-.07 2.46-.09 3.7-2.34.07-4.69.11-7.02.23.23 8-.29 16.03.25 24.01-.01 3.71 4.33 2.93 6.81 2.99-.03 1.28-.06 2.57-.08 3.86-3.89.05-9.7 1.03-11.18-3.79-.42-9.06-.04-18.14-.17-27.2-2-.01-4-.01-5.99 0-.01-1.31-.02-2.61-.02-3.91 2-.01 4-.01 6.01 0v-10.41z" id="path94" style="opacity:1;fill:#fff"/><path d="M361.18 395.1c5.26-6.68 16.59-6.91 22.3-.7 3.53 4.21 4.81 9.89 4.41 15.29-8.76.05-17.52 0-26.27.02.3 3.77 1.41 7.71 4.28 10.34 3.29 3 8.52 3.27 12.33 1.16 2.67-1.56 4.01-4.46 5.06-7.22 1.59.01 3.18.04 4.78.08-1.27 3.7-2.67 7.72-6.06 10.02-5.18 3.32-12.17 3.47-17.54.51-5.23-3.22-7.56-9.63-7.41-15.55-.21-4.92.87-10.12 4.12-13.95m.74 10.52c7.15-.12 14.31.12 21.46-.13-.4-5.56-4.37-11.32-10.33-11.58-6.27-.21-11.04 5.77-11.13 11.71z" id="path96" style="opacity:1;fill:#fff"/><path d="M465.87 390.7c4.6-1.08 9.88-1.28 14.16 1.06 3.59 2.05 4.63 6.41 4.67 10.25.07 6.38-.08 12.76.08 19.14 1.19.16 2.4.29 3.62.41-.01.98-.01 2.93-.01 3.9-2.05.14-4.3.69-6.16-.48-1.61-.8-1.69-2.83-2.24-4.31-4.32 6.43-13.93 7.96-20.2 3.62-5.09-3.73-5.06-12.82.58-16.04 5.7-3.31 12.66-2.05 18.69-4.25 1.68-2.97.91-7.21-2.22-8.87-3.54-1.74-8-1.66-11.42.33-2.22 1.4-2.85 4.03-3.27 6.44-1.53 0-3.06.01-4.59.02-.01-5.06 3.23-10.05 8.31-11.22m-2.9 21.21c-3.37 2.23-2.41 7.45.77 9.38 4.23 2.54 9.91 1.05 13.37-2.16 3-3.07 3.09-7.58 2.92-11.58-5.52 2.07-11.99 1.04-17.06 4.36z" id="path98" style="opacity:1;fill:#fff"/><path d="M520.51 390.47c4.44-.75 9.41-.97 13.48 1.32 2.89 1.66 4.38 5.03 4.39 8.29.14 6.49-.12 12.99.08 19.49.01 1.78 2.15 2.3 3.57 1.81-.06 1.44-.12 2.89-.2 4.35-2.28.09-4.55-.14-6.65-1.06-.48-1.41-.89-2.83-1.19-4.28-3.94 6.57-13.22 8.02-19.61 4.4-4-2.32-5.08-7.59-3.93-11.78 1.03-3.29 4.13-5.48 7.39-6.23 4.91-1.58 10.3-.9 15.1-2.8.37-1.08.75-2.15 1.14-3.22-.44-6.75-8.85-8.36-13.93-5.69-2.9.99-3.51 4.23-4.19 6.82l-4.41.03c-.19-5.39 3.64-10.41 8.96-11.45m-3.08 20.97c-3.24 1.62-3.51 6.71-.77 8.92 3.58 3.6 9.72 2.39 13.41-.43 3.86-2.88 4.06-8.15 3.98-12.53-5.32 2.2-11.48 1.28-16.62 4.04z" id="path100" style="opacity:1;fill:#fff"/><path d="M598.54 395.91c2.8-4.59 8.37-6.67 13.57-5.83 5.27.1 9.82 4.58 9.83 9.88.15 8.58.01 17.17.06 25.75-1.46-.01-2.92-.01-4.36-.02-.39-8.57.6-17.22-.6-25.74-.77-5.21-7.13-7.35-11.55-5.34-4.33 1.44-6.79 6.07-6.76 10.45-.1 6.86.05 13.72-.06 20.59-1.55.03-3.09.07-4.63.11-.1-11.59-.02-23.17-.04-34.76 1.58-.01 3.17-.01 4.76 0-.06 1.63-.12 3.27-.22 4.91z" id="path102" style="opacity:1;fill:#fff"/><path d="M668.48 390.54c4.08-.82 8.54-.95 12.48.59 3.56 1.36 5.67 5.15 5.73 8.85.15 7.05-.22 14.11.21 21.15 1.16.16 2.33.3 3.51.43-.01 1-.03 2.99-.05 3.98-2.04.1-4.26.55-6.09-.65-1.72-.81-1.62-3.03-1.98-4.62-3.74 6.51-12.7 8.04-19.1 4.83-6.2-3.02-6.76-13.25-.77-16.8 5.25-2.98 11.55-2.42 17.26-3.68 3.75-1.53 2.79-7.08-.01-9.11-4.04-2.38-9.62-2.19-13.25.87-1.36 1.54-1.64 3.64-2.23 5.54l-4.31-.03c-.37-5.28 3.45-10.24 8.6-11.35m-2.26 20.63c-3.25 1.27-4.29 5.75-2.07 8.41 3.67 4.72 11.15 3.31 15.05-.4 3.17-2.99 2.99-7.61 2.95-11.61-5.17 1.83-10.93 1.24-15.93 3.6z" id="path104" style="opacity:1;fill:#fff"/><path d="M558.27 391.04c1.57-.03 3.14-.05 4.73-.06.02 7.34-.04 14.67.01 22.01.2 3.22.92 7.06 4.1 8.68 3.56 1.43 8.28 1.38 11.07-1.6 2.89-2.86 3.8-7.14 3.89-11.07.06-6 0-12.01.02-18.01 1.54.01 3.09.02 4.64.04-.14 11.58.17 23.17-.16 34.74-1.07-.03-3.22-.11-4.3-.15.02-1.82.06-3.62.17-5.42-3.95 6.6-13.57 8.52-19.84 4.18-3.48-2.67-4.16-7.32-4.31-11.42-.03-7.31.04-14.61-.02-21.92z" id="path106" style="opacity:1;fill:#fff"/><path d="M625.57 390.99c1.7 0 3.41.02 5.13.04 3.53 9.52 7.43 18.91 10.83 28.49 3.66-9.44 6.88-19.04 10.42-28.52 1.59-.01 3.18-.01 4.78 0-4.88 12.97-9.72 25.95-14.63 38.9-1.23 3.1-2.54 6.58-5.76 8.1h-7.19c-.05-1.3-.09-2.59-.13-3.87 2.24-.23 5.08.62 6.78-1.31 1.66-2.25 2.78-4.95 3.32-7.69-4.21-11.49-9.11-22.73-13.55-34.14z" id="path108" style="opacity:1;fill:#fff"/></g></svg>